<svg viewBox="0 0 27 28" fill="none" xmlns="http://www.w3.org/2000/svg">
  <g clip-path="url(#clip0_3001_317)">
    <path
      d="M22.741 5.35777C21.0414 4.57793 19.2188 4.00335 17.3131 3.67423C17.2784 3.66788 17.2437 3.68376 17.2259 3.71548C16.9914 4.13241 16.7318 4.67626 16.55 5.10376C14.5003 4.79689 12.4612 4.79689 10.4536 5.10376C10.2717 4.66678 10.0026 4.13241 9.76717 3.71548C9.7493 3.68481 9.71462 3.66892 9.67993 3.67423C7.77535 4.00225 5.95274 4.57684 4.25201 5.35777C4.23727 5.36413 4.22467 5.3747 4.21628 5.38845C0.759199 10.5533 -0.187884 15.5912 0.276699 20.5666C0.278783 20.591 0.292481 20.6142 0.311387 20.629C2.59227 22.3041 4.80175 23.321 6.97014 23.995C7.00482 24.0056 7.0416 23.9929 7.06368 23.9643C7.5766 23.2639 8.03383 22.5253 8.42587 21.7486C8.44899 21.7031 8.42691 21.6491 8.37962 21.6311C7.65436 21.356 6.96378 21.0205 6.29946 20.6396C6.24691 20.609 6.24269 20.5338 6.29107 20.4978C6.43087 20.3931 6.57071 20.2841 6.7042 20.174C6.72837 20.1539 6.76201 20.1497 6.7904 20.1624C11.1546 22.1549 15.8793 22.1549 20.192 20.1624C20.2203 20.1486 20.254 20.1529 20.2792 20.1729C20.4127 20.283 20.5525 20.393 20.6934 20.4978C20.7417 20.5338 20.7385 20.6089 20.686 20.6396C20.0217 21.0279 19.3311 21.356 18.6048 21.63C18.5575 21.648 18.5365 21.703 18.5597 21.7485C18.9601 22.5241 19.4174 23.2627 19.9208 23.9632C19.9419 23.9929 19.9797 24.0056 20.0144 23.995C22.1933 23.321 24.4027 22.304 26.6836 20.629C26.7036 20.6142 26.7162 20.5919 26.7183 20.5676C27.2744 14.8155 25.787 9.81887 22.7756 5.38944C22.7683 5.3747 22.7557 5.36413 22.741 5.35777ZM9.07769 17.5371C7.76378 17.5371 6.68113 16.3308 6.68113 14.8494C6.68113 13.3679 7.74274 12.1617 9.07769 12.1617C10.4231 12.1617 11.4952 13.3786 11.4742 14.8494C11.4742 16.3308 10.4125 17.5371 9.07769 17.5371ZM17.9385 17.5371C16.6246 17.5371 15.542 16.3308 15.542 14.8494C15.542 13.3679 16.6036 12.1617 17.9385 12.1617C19.2839 12.1617 20.356 13.3786 20.335 14.8494C20.335 16.3308 19.2839 17.5371 17.9385 17.5371Z"
      fill="#DDE6FF" />
  </g>
  <defs>
    <clipPath id="clip0_3001_317">
      <rect width="26.6667" height="26.6667" fill="white" transform="translate(0.166504 0.502441)" />
    </clipPath>
  </defs>
</svg>