<svg viewBox="0 0 21 22" fill="none" xmlns="http://www.w3.org/2000/svg">
  <path
    d="M10.5302 2.28137C13.3162 2.28137 13.6462 2.29237 14.7462 2.34237C15.7632 2.38837 16.3162 2.55837 16.6842 2.70137C17.1712 2.89037 17.5192 3.11637 17.8842 3.48137C18.2492 3.84637 18.4752 4.19437 18.6642 4.68137C18.8072 5.04937 18.9772 5.60137 19.0232 6.61937C19.0732 7.71937 19.0842 8.04937 19.0842 10.8354C19.0842 13.6214 19.0732 13.9514 19.0232 15.0514C18.9772 16.0684 18.8072 16.6214 18.6642 16.9894C18.4752 17.4764 18.2492 17.8244 17.8842 18.1894C17.5192 18.5544 17.1712 18.7804 16.6842 18.9694C16.3162 19.1124 15.7642 19.2824 14.7462 19.3284C13.6462 19.3784 13.3162 19.3894 10.5302 19.3894C7.74419 19.3894 7.41419 19.3784 6.31419 19.3284C5.29719 19.2824 4.74419 19.1124 4.37719 18.9694C3.89019 18.7804 3.54219 18.5534 3.17719 18.1894C2.81219 17.8244 2.58619 17.4764 2.39719 16.9894C2.25419 16.6214 2.08419 16.0694 2.03819 15.0514C1.98819 13.9514 1.97719 13.6214 1.97719 10.8354C1.97719 8.04937 1.98819 7.71937 2.03819 6.61937C2.08519 5.60237 2.25519 5.04937 2.39719 4.68137C2.58619 4.19437 2.81219 3.84737 3.17719 3.48137C3.54219 3.11637 3.89019 2.89037 4.37719 2.70137C4.74519 2.55837 5.29719 2.38837 6.31419 2.34237C7.41419 2.29237 7.74419 2.28137 10.5302 2.28137ZM10.5302 0.401367C7.69619 0.401367 7.34119 0.413368 6.22819 0.464368C5.11719 0.515368 4.35919 0.691368 3.69519 0.949368C3.00919 1.21637 2.42719 1.57237 1.84719 2.15337C1.26719 2.73437 0.910188 3.31537 0.644188 4.00137C0.386188 4.66537 0.210187 5.42337 0.159187 6.53437C0.108187 7.64737 0.0961914 8.00237 0.0961914 10.8364C0.0961914 13.6704 0.108187 14.0254 0.159187 15.1384C0.209187 16.2494 0.386188 17.0074 0.644188 17.6714C0.910188 18.3574 1.26719 18.9394 1.84719 19.5194C2.42719 20.0994 3.00919 20.4564 3.69519 20.7234C4.35919 20.9814 5.11719 21.1574 6.22819 21.2084C7.34119 21.2594 7.69619 21.2714 10.5302 21.2714C13.3642 21.2714 13.7192 21.2594 14.8322 21.2084C15.9432 21.1574 16.7012 20.9814 17.3652 20.7234C18.0512 20.4564 18.6332 20.1004 19.2132 19.5194C19.7932 18.9384 20.1502 18.3574 20.4172 17.6714C20.6752 17.0074 20.8512 16.2494 20.9022 15.1384C20.9532 14.0254 20.9652 13.6704 20.9652 10.8364C20.9652 8.00237 20.9532 7.64737 20.9022 6.53437C20.8512 5.42337 20.6752 4.66537 20.4172 4.00137C20.1502 3.31537 19.7942 2.73337 19.2132 2.15337C18.6322 1.57337 18.0512 1.21637 17.3652 0.949368C16.7012 0.691368 15.9432 0.515368 14.8322 0.464368C13.7192 0.413368 13.3642 0.401367 10.5302 0.401367Z"
    fill="#DDE6FF" />
  <path
    d="M10.5304 5.47754C7.57136 5.47754 5.17236 7.87654 5.17236 10.8355C5.17236 13.7945 7.57136 16.1935 10.5304 16.1935C13.4894 16.1935 15.8884 13.7945 15.8884 10.8355C15.8884 7.87654 13.4894 5.47754 10.5304 5.47754ZM10.5304 14.3135C8.60936 14.3135 7.05237 12.7565 7.05237 10.8355C7.05237 8.91454 8.60936 7.35754 10.5304 7.35754C12.4514 7.35754 14.0084 8.91454 14.0084 10.8355C14.0084 12.7565 12.4514 14.3135 10.5304 14.3135Z"
    fill="#DDE6FF" />
  <path
    d="M17.3522 5.26616C17.3522 5.95716 16.7912 6.51816 16.1002 6.51816C15.4092 6.51816 14.8481 5.95716 14.8481 5.26616C14.8481 4.57516 15.4092 4.01416 16.1002 4.01416C16.7912 4.01416 17.3522 4.57516 17.3522 5.26616Z"
    fill="#DDE6FF" />
</svg>