<svg viewBox="0 0 25 25" fill="none" xmlns="http://www.w3.org/2000/svg">
  <g clip-path="url(#clip0_1468_4138)">
    <path
      d="M23.1397 6.85352C21.77 6.85352 20.5063 6.39977 19.4914 5.6343C18.3275 4.7568 17.4913 3.46961 17.196 1.98602C17.1228 1.61945 17.0835 1.24117 17.0797 0.853516H13.1671V11.5448L13.1624 17.4009C13.1624 18.9665 12.1428 20.294 10.7296 20.7609C10.3194 20.8963 9.87644 20.9605 9.41519 20.9352C8.82644 20.9029 8.27472 20.7252 7.79519 20.4384C6.77472 19.828 6.08284 18.7209 6.06409 17.4543C6.03456 15.4748 7.63487 13.8609 9.613 13.8609C10.0035 13.8609 10.3785 13.9246 10.7296 14.0404V11.1182V10.0677C10.3592 10.0129 9.98237 9.9843 9.60128 9.9843C7.43612 9.9843 5.41112 10.8843 3.96362 12.5057C2.86956 13.731 2.21331 15.2943 2.11206 16.9335C1.9794 19.087 2.76737 21.134 4.2955 22.6443C4.52003 22.866 4.75581 23.0718 5.00237 23.2616C6.31253 24.2699 7.91425 24.8165 9.60128 24.8165C9.98237 24.8165 10.3592 24.7884 10.7296 24.7335C12.3055 24.5001 13.7596 23.7787 14.9071 22.6443C16.3171 21.2507 17.0961 19.4005 17.1046 17.4313L17.0844 8.68633C17.7571 9.20523 18.4925 9.63461 19.2819 9.96789C20.5096 10.4859 21.8113 10.7484 23.151 10.7479V7.9068V6.85258C23.1519 6.85352 23.1407 6.85352 23.1397 6.85352Z"
      fill="#DDE6FF" />
  </g>
  <defs>
    <clipPath id="clip0_1468_4138">
      <rect width="24" height="24" fill="white" transform="translate(0.621094 0.835938)" />
    </clipPath>
  </defs>
</svg>