<svg viewBox="0 0 31 22" fill="none" xmlns="http://www.w3.org/2000/svg">
  <path
    d="M30.1848 3.45648C29.8348 2.13748 28.8028 1.09848 27.4918 0.745483C25.1168 0.104483 15.5908 0.104492 15.5908 0.104492C15.5908 0.104492 6.06584 0.104483 3.68984 0.745483C2.37884 1.09848 1.34684 2.13648 0.99684 3.45648C0.36084 5.84748 0.36084 10.8355 0.36084 10.8355C0.36084 10.8355 0.36084 15.8235 0.99684 18.2155C1.34684 19.5345 2.37984 20.5735 3.68984 20.9255C6.06584 21.5665 15.5908 21.5665 15.5908 21.5665C15.5908 21.5665 25.1158 21.5665 27.4918 20.9255C28.8028 20.5725 29.8348 19.5345 30.1848 18.2155C30.8208 15.8245 30.8208 10.8355 30.8208 10.8355C30.8208 10.8355 30.8208 5.84748 30.1848 3.45648Z"
    fill="#DDE6FF" />
  <path d="M12.4746 15.3656V6.30664L20.4366 10.8366L12.4746 15.3656Z" fill="#211E36" />
</svg>