<svg width="86" height="91" viewBox="0 0 86 91" fill="none" xmlns="http://www.w3.org/2000/svg">
<g filter="url(#filter0_d_2006_225)">
<path d="M18.9946 33.1814C18.9946 31.2169 20.065 29.4085 21.7872 28.4634L40.4054 18.2461C42.0181 17.3611 43.9711 17.3611 45.5837 18.2461L64.202 28.4634C65.9242 29.4085 66.9946 31.2169 66.9946 33.1814V54.469C66.9946 56.4335 65.9242 58.2419 64.202 59.187L45.5837 69.4043C43.9711 70.2893 42.0181 70.2893 40.4054 69.4043L21.7872 59.187C20.065 58.2419 18.9946 56.4335 18.9946 54.469V33.1814Z" fill="#E4A30B"/>
<path d="M40.6518 18.6953C42.1109 17.8946 43.8783 17.8946 45.3373 18.6953L63.9555 28.9131C65.5135 29.7682 66.4819 31.4044 66.4819 33.1817V54.4688C66.4819 56.2461 65.5135 57.8822 63.9555 58.7373L45.3373 68.9551C43.8783 69.7558 42.1109 69.7558 40.6518 68.9551L22.0336 58.7373C20.4756 57.8822 19.5073 56.2461 19.5073 54.4688V33.1817C19.5073 31.4044 20.4756 29.7682 22.0336 28.9131L40.6518 18.6953Z" stroke="#FFBF53" stroke-width="1.0251"/>
</g>
<g clip-path="url(#clip0_2006_225)">
<path d="M50.2806 55.8252H54.6228L53.3526 53.9203C53.2565 53.7761 53.2565 53.5886 53.3526 53.4444L54.6228 51.5395H51.1378V54.5395C51.1378 54.7762 50.9459 54.9681 50.7092 54.9681H50.2806V55.8252Z" fill="white"/>
<path d="M34.852 54.5395V51.5395H31.367L32.6372 53.4444C32.7333 53.5886 32.7333 53.7761 32.6372 53.9203L31.367 55.8252H35.7092V54.9681H35.2806C35.0439 54.9681 34.852 54.7762 34.852 54.5395Z" fill="white"/>
<path d="M41.2806 49.8252H35.7092V54.1109H50.2806V49.8252H41.2806Z" fill="white"/>
<path d="M44.7092 48.9681C44.9459 48.9681 45.1378 48.7762 45.1378 48.5396C45.1378 48.3029 44.9459 48.111 44.7092 48.111H41.2806C41.0439 48.111 40.852 48.3029 40.852 48.5396C40.852 48.7762 41.0439 48.9681 41.2806 48.9681H44.7092Z" fill="white"/>
<path d="M35.7092 43.8252C33.5799 43.8229 31.8543 42.0973 31.852 39.9681V34.8252C31.852 34.5885 32.0439 34.3966 32.2806 34.3966H34.852V33.5395H30.9949V39.9681C30.998 42.5705 33.1068 44.6792 35.7092 44.6824H36.3679C36.1696 44.4082 35.9886 44.122 35.8262 43.8252H35.7092Z" fill="white"/>
<path d="M43.666 37.2642L42.9949 35.8341L42.3238 37.2642C42.2631 37.3937 42.1419 37.4843 42.0007 37.5059L40.4557 37.7421L41.5874 38.9023C41.6824 38.9996 41.7255 39.1363 41.7035 39.2704L41.4409 40.8805L42.7879 40.1361C42.9168 40.065 43.073 40.065 43.2019 40.1361L44.5489 40.8805L44.2863 39.2704C44.2643 39.1363 44.3074 38.9996 44.4024 38.9023L45.5341 37.7421L43.9914 37.5059C43.8493 37.485 43.7271 37.3941 43.666 37.2642Z" fill="white"/>
<path d="M50.2806 34.8252V31.8252H35.7092V39.9681C35.7092 43.9918 38.9712 47.2538 42.9949 47.2538C47.0186 47.2538 50.2806 43.9918 50.2806 39.9681V34.8252ZM46.7302 37.7438L45.1668 39.3457L45.5372 41.6133C45.5575 41.7376 45.5222 41.8642 45.4406 41.9601C45.3592 42.0559 45.2395 42.1111 45.1137 42.1109C45.0413 42.1111 44.9701 42.0927 44.9067 42.0574L42.9949 41.0006L41.0831 42.0574C40.9395 42.1369 40.7631 42.1273 40.6288 42.0327C40.4946 41.9383 40.4262 41.7753 40.4526 41.6133L40.823 39.3457L39.2595 37.7438C39.1472 37.6287 39.1089 37.4607 39.1597 37.3083C39.2108 37.156 39.3428 37.0451 39.5017 37.0208L41.6445 36.6929L42.6092 34.6432C42.6797 34.4927 42.831 34.3969 42.997 34.3969C43.1631 34.3969 43.3142 34.4927 43.385 34.6432L44.3469 36.6929L46.4898 37.0208C46.6486 37.0451 46.7807 37.156 46.8317 37.3083C46.8828 37.4607 46.8443 37.6287 46.7321 37.7438H46.7302Z" fill="white"/>
<path d="M51.1378 34.3966H53.7092C53.9459 34.3966 54.1378 34.5885 54.1378 34.8252V39.9681C54.1355 42.0973 52.4099 43.8229 50.2806 43.8252H50.1636C50.0012 44.122 49.8202 44.4082 49.6219 44.6824H50.2806C52.883 44.6792 54.9918 42.5705 54.9949 39.9681V33.5395H51.1378V34.3966Z" fill="white"/>
</g>
<defs>
<filter id="filter0_d_2006_225" x="-1.90735e-06" y="2.26498e-06" width="85.9891" height="90.4749" filterUnits="userSpaceOnUse" color-interpolation-filters="sRGB">
<feFlood flood-opacity="0" result="BackgroundImageFix"/>
<feColorMatrix in="SourceAlpha" type="matrix" values="0 0 0 0 0 0 0 0 0 0 0 0 0 0 0 0 0 0 127 0" result="hardAlpha"/>
<feOffset dy="1.41224"/>
<feGaussianBlur stdDeviation="9.49728"/>
<feComposite in2="hardAlpha" operator="out"/>
<feColorMatrix type="matrix" values="0 0 0 0 0 0 0 0 0 0.478431 0 0 0 0 1 0 0 0 0.11 0"/>
<feBlend mode="normal" in2="BackgroundImageFix" result="effect1_dropShadow_2006_225"/>
<feBlend mode="normal" in="SourceGraphic" in2="effect1_dropShadow_2006_225" result="shape"/>
</filter>
<clipPath id="clip0_2006_225">
<rect width="24" height="24" fill="white" transform="translate(30.9946 31.8252)"/>
</clipPath>
</defs>
</svg>
