<svg width="46" height="52" viewBox="0 0 46 52" fill="none" xmlns="http://www.w3.org/2000/svg">
<path d="M19.2832 3.12109C21.4167 1.89791 24.0353 1.88441 26.1816 3.08496L41.417 11.6064C43.6293 12.8439 45 15.1809 45 17.7158V33.9121C45 36.3498 43.7319 38.6119 41.6523 39.8838L27.2754 48.6768C25.0955 50.0099 22.362 50.049 20.1445 48.7793L4.52148 39.834C2.3435 38.5869 1 36.2686 1 33.7588V17.6592C1 15.1508 2.34246 12.8336 4.51855 11.5859L19.2832 3.12109Z" fill="#33D8FE" fill-opacity="0.24" stroke="#33D8FE" stroke-width="2"/>
<path d="M21.0955 33.776C20.3524 34.5191 19.1476 34.5191 18.4045 33.776L14.5542 29.9258C13.7083 29.0798 13.7083 27.7082 14.5542 26.8622C15.4011 26.0153 16.7745 26.0164 17.6201 26.8645L19.75 29.0007L28.9208 19.8206C29.767 18.9735 31.1399 18.9731 31.9866 19.8198C32.833 20.6662 32.833 22.0385 31.9866 22.8849L21.0955 33.776Z" fill="white"/>
</svg>
