<svg width="14" height="14" viewBox="0 0 14 14" fill="none" xmlns="http://www.w3.org/2000/svg">
<path d="M0.686127 11.1425C0.246937 11.5816 0.00013263 12.1771 0 12.7981V14H1.20189C1.82291 13.9999 2.41844 13.7531 2.8575 13.3139L10.6689 5.50244L8.49756 3.33107L0.686127 11.1425Z" fill="white"/>
<path d="M13.5498 0.450158C13.4073 0.307451 13.238 0.19424 13.0517 0.116998C12.8653 0.0397571 12.6656 0 12.4639 0C12.2622 0 12.0624 0.0397571 11.8761 0.116998C11.6897 0.19424 11.5204 0.307451 11.3779 0.450158L9.32536 2.50327L11.4967 4.67464L13.5498 2.62211C13.6925 2.47955 13.8058 2.31027 13.883 2.12393C13.9602 1.93759 14 1.73785 14 1.53614C14 1.33442 13.9602 1.13469 13.883 0.948346C13.8058 0.762006 13.6925 0.592718 13.5498 0.450158Z" fill="white"/>
</svg>
