<svg width="12" height="12" viewBox="0 0 12 12" fill="none" xmlns="http://www.w3.org/2000/svg">
<path d="M10.5022 4.20017H10.675C10.9659 4.20017 11.2 3.96611 11.2 3.67517V0.525168C11.2 0.31298 11.0731 0.120481 10.8763 0.039543C10.6794 -0.0413945 10.4541 0.00454294 10.3031 0.153293L9.17219 1.28642C8.20312 0.483606 6.95625 0.000167952 5.6 0.000167952C2.77813 0.000167952 0.444062 2.08704 0.056875 4.80173C0.00218747 5.18454 0.266875 5.53892 0.649687 5.59361C1.0325 5.64829 1.38687 5.38142 1.44156 5.00079C1.7325 2.96423 3.48469 1.40017 5.6 1.40017C6.57125 1.40017 7.46375 1.72829 8.17469 2.28173L7.15312 3.30329C7.00219 3.45423 6.95844 3.67954 7.03937 3.87642C7.12031 4.07329 7.31281 4.20017 7.525 4.20017H10.5022ZM11.1453 6.39861C11.2 6.01579 10.9331 5.66142 10.5525 5.60673C10.1719 5.55204 9.81531 5.81892 9.76062 6.19954C9.46969 8.23392 7.7175 9.79798 5.60219 9.79798C4.63094 9.79798 3.73844 9.46986 3.0275 8.91642L4.04688 7.89704C4.19781 7.74611 4.24156 7.52079 4.16062 7.32392C4.07969 7.12704 3.88719 7.00017 3.675 7.00017H0.525C0.234062 7.00017 0 7.23423 0 7.52517V10.6752C0 10.8874 0.126875 11.0799 0.32375 11.1608C0.520625 11.2417 0.745937 11.1958 0.896875 11.047L2.03 9.91392C2.99688 10.7167 4.24375 11.2002 5.6 11.2002C8.42188 11.2002 10.7559 9.11329 11.1431 6.39861H11.1453Z" fill="white"/>
</svg>
