<svg width="442" height="64" viewBox="0 0 442 64" fill="none" xmlns="http://www.w3.org/2000/svg">
<g clip-path="url(#clip0_319_5)">
<path d="M184.017 -130.875L204.922 -140.824L-171.096 285.947L-168.202 267.306L184.017 -130.875Z" fill="#D9D9D9" fill-opacity="0.1"/>
<path d="M200.296 -130.875L221.202 -140.824L-154.816 285.947L-151.923 267.306L200.296 -130.875Z" fill="#D9D9D9" fill-opacity="0.1"/>
<path d="M216.575 -130.875L237.481 -140.824L-138.537 285.947L-135.644 267.306L216.575 -130.875Z" fill="#D9D9D9" fill-opacity="0.1"/>
<path d="M232.854 -130.875L253.76 -140.824L-122.258 285.947L-119.365 267.306L232.854 -130.875Z" fill="#D9D9D9" fill-opacity="0.1"/>
<path d="M249.134 -130.875L270.04 -140.824L-105.978 285.947L-103.085 267.306L249.134 -130.875Z" fill="#D9D9D9" fill-opacity="0.1"/>
<path d="M265.413 -130.875L286.319 -140.824L-89.6992 285.947L-86.8059 267.306L265.413 -130.875Z" fill="#D9D9D9" fill-opacity="0.1"/>
<path d="M281.692 -130.875L302.598 -140.824L-73.4199 285.947L-70.5266 267.306L281.692 -130.875Z" fill="#D9D9D9" fill-opacity="0.1"/>
<path d="M297.972 -130.875L318.877 -140.824L-57.1406 285.947L-54.2473 267.306L297.972 -130.875Z" fill="#D9D9D9" fill-opacity="0.1"/>
<path d="M314.251 -130.875L335.157 -140.824L-40.8613 285.947L-37.968 267.306L314.251 -130.875Z" fill="#D9D9D9" fill-opacity="0.1"/>
<path d="M330.53 -130.875L351.436 -140.824L-24.582 285.947L-21.6887 267.306L330.53 -130.875Z" fill="#D9D9D9" fill-opacity="0.1"/>
<path d="M346.81 -130.875L367.715 -140.824L-8.30269 285.947L-5.40944 267.306L346.81 -130.875Z" fill="#D9D9D9" fill-opacity="0.1"/>
<path d="M363.089 -130.875L383.995 -140.824L7.9766 285.947L10.8699 267.306L363.089 -130.875Z" fill="#D9D9D9" fill-opacity="0.1"/>
<path d="M379.368 -130.875L400.274 -140.824L24.2559 285.947L27.1492 267.306L379.368 -130.875Z" fill="#D9D9D9" fill-opacity="0.1"/>
<path d="M395.647 -130.875L416.553 -140.824L40.5352 285.947L43.4284 267.306L395.647 -130.875Z" fill="#D9D9D9" fill-opacity="0.1"/>
<path d="M411.927 -130.875L432.833 -140.824L56.8145 285.947L59.7077 267.306L411.927 -130.875Z" fill="#D9D9D9" fill-opacity="0.1"/>
<path d="M428.206 -130.875L449.112 -140.824L73.0938 285.947L75.987 267.306L428.206 -130.875Z" fill="#D9D9D9" fill-opacity="0.1"/>
<path d="M444.485 -130.875L465.391 -140.824L89.3731 285.947L92.2663 267.306L444.485 -130.875Z" fill="#D9D9D9" fill-opacity="0.1"/>
<path d="M460.765 -130.875L481.67 -140.824L105.652 285.947L108.546 267.306L460.765 -130.875Z" fill="#D9D9D9" fill-opacity="0.1"/>
<path d="M477.044 -130.875L497.95 -140.824L121.932 285.947L124.825 267.306L477.044 -130.875Z" fill="#D9D9D9" fill-opacity="0.1"/>
<path d="M493.323 -130.875L514.229 -140.824L138.211 285.947L141.104 267.306L493.323 -130.875Z" fill="#D9D9D9" fill-opacity="0.1"/>
<path d="M509.603 -130.875L530.508 -140.824L154.49 285.947L157.384 267.306L509.603 -130.875Z" fill="#D9D9D9" fill-opacity="0.1"/>
<path d="M525.882 -130.875L546.788 -140.824L170.77 285.947L173.663 267.306L525.882 -130.875Z" fill="#D9D9D9" fill-opacity="0.1"/>
<path d="M542.161 -130.875L563.067 -140.824L187.049 285.947L189.942 267.306L542.161 -130.875Z" fill="#D9D9D9" fill-opacity="0.1"/>
</g>
<defs>
<clipPath id="clip0_319_5">
<rect width="442" height="64" fill="white"/>
</clipPath>
</defs>
</svg>
