<svg viewBox="0 0 194 32" fill="none" xmlns="http://www.w3.org/2000/svg">
<path d="M122.693 27.7388C122.004 27.3746 121.378 26.9444 120.814 26.4479C120.25 25.9513 119.785 25.4328 119.417 24.892C119.27 24.6935 119.17 24.5337 119.115 24.4121C119.06 24.2909 119.05 24.1751 119.085 24.0645C119.113 23.9763 119.173 23.8825 119.265 23.7832C119.357 23.684 124.642 19.3201 124.754 19.2648C124.865 19.2097 124.965 19.182 125.053 19.182C125.152 19.182 125.25 19.2126 125.346 19.2731C125.443 19.3339 126.429 20.1916 126.719 20.4897C127.409 21.1959 128.028 21.6759 128.575 21.9296C128.908 22.095 129.273 22.1778 129.67 22.1778C130.739 22.1778 131.409 21.7532 131.679 20.9035C131.785 20.5724 131.703 20.2579 131.434 19.9601C131.298 19.8153 131.024 19.6441 130.733 19.4866C130.236 19.2169 129.71 19.0057 129.173 18.8296C126.776 18.0441 125.233 16.948 124.542 15.541C124.209 14.8571 124.054 14.1067 124.077 13.2901C124.1 12.4737 124.267 11.5745 124.58 10.5923C124.914 9.54422 125.437 8.58422 126.15 7.71247C126.862 6.84085 127.727 6.0905 128.743 5.46155C129.747 4.83261 130.864 4.35274 132.094 4.02156C133.323 3.69064 134.616 3.52498 135.971 3.52498C137.757 3.52498 139.224 3.74586 140.373 4.18708C141.706 4.70586 142.777 5.56651 143.584 6.76905C143.65 6.97883 143.651 7.18286 143.588 7.38141C143.486 7.70163 143.179 8.07654 142.667 8.50694L138.89 11.7013C138.643 11.922 138.399 12.0323 138.156 12.0323C137.837 12.0323 137.533 11.8613 137.245 11.5192C136.894 11.1 136.435 10.7413 135.868 10.4434C135.309 10.1566 134.793 10.013 134.319 10.013C133.846 10.013 133.433 10.0957 133.083 10.2611C132.642 10.4709 132.351 10.7965 132.21 11.2377C132.129 11.4916 132.143 11.7094 132.25 11.8914C132.358 12.0735 132.539 12.2306 132.794 12.3631C133.035 12.5066 134.456 12.9589 134.456 12.9589C135.726 13.4002 136.754 13.8141 137.541 14.2002C138.327 14.5866 138.961 15.0443 139.443 15.5737C139.987 16.1809 140.314 16.912 140.422 17.7668C140.53 18.6219 140.389 19.6619 140 20.8866C139.596 22.1556 138.982 23.2948 138.159 24.3044C137.337 25.3138 136.35 26.1721 135.199 26.8779C134.089 27.5622 132.857 28.0837 131.503 28.442C130.149 28.8005 128.756 28.9797 127.323 28.9797C125.769 28.9797 124.226 28.5661 122.693 27.7386L122.693 27.7388Z" fill="white"/>
<path d="M3.36239 22.9519L5.04345 25.5981L6.72467 28.2444H3.36239H0L1.6812 25.5981L3.36239 22.9519Z" fill="#568EFF"/>
<path d="M18.1004 0L9.66406 13.3347L13.0386 18.7774L18.1004 10.8855L23.1622 18.7774L26.5368 13.3347L18.1004 0Z" fill="#568EFF"/>
<path d="M34.9019 4.22225C34.8448 4.20554 34.7836 4.2288 34.7518 4.27881L23.1616 22.4994L18.2131 14.837C18.164 14.7608 18.0377 14.7608 17.9885 14.837L13.0398 22.4994L1.44976 4.27881C1.41794 4.22867 1.35696 4.2054 1.2996 4.22225C1.24251 4.23883 1.20321 4.2911 1.20321 4.3506V15.1273C1.20321 15.1527 1.21043 15.1775 1.22407 15.199L9.55131 28.316C9.57591 28.3547 9.61842 28.3781 9.66429 28.3781H16.3589C16.4021 28.3781 16.4427 28.3571 16.4678 28.3219L18.1005 26.026L19.7331 28.3219C19.7583 28.3572 19.799 28.3781 19.8421 28.3781H26.5367C26.5826 28.3781 26.6251 28.3547 26.6497 28.316L34.9769 15.199C34.9907 15.1775 34.9978 15.1527 34.9978 15.1273V4.3506C34.9978 4.2911 34.9585 4.23883 34.9014 4.22225H34.9019Z" fill="white"/>
<path d="M32.8389 22.9519L31.1578 25.598L29.4766 28.2443H32.8389H36.2012L34.5201 25.598L32.8389 22.9519Z" fill="#568EFF"/>
<path d="M93.0054 4.31109C92.8729 4.17324 92.713 4.10425 92.5258 4.10425H83.1509C83.1021 4.10425 83.0572 4.13072 83.0338 4.17364C83.0102 4.21629 83.012 4.26857 83.038 4.30975L84.5596 6.70466L77.2084 31.2718C77.0538 31.7574 77.219 31.9999 77.704 31.9999C77.704 31.9999 83.5785 29.1281 85.292 28.2138C85.5773 28.0615 85.7921 27.8045 85.8902 27.4964L93.1042 4.83253C93.1709 4.62315 93.1378 4.44934 93.0057 4.31122L93.0054 4.31109Z" fill="white"/>
<path d="M121.65 4.26973C121.564 4.15969 121.372 4.10434 121.075 4.10434H115.008C114.787 4.10434 114.589 4.17333 114.413 4.31118C114.237 4.44929 114.115 4.62311 114.049 4.83249L110.756 15.1769L107.191 4.61736C107.137 4.44101 107.046 4.31118 106.918 4.22842C106.79 4.14565 106.654 4.1042 106.511 4.1042H96.192C96.1432 4.1042 96.0983 4.13068 96.0749 4.1736C96.0513 4.21625 96.0531 4.26852 96.0791 4.3097L97.8205 7.05051L91.1561 27.9871C91.0964 28.1749 91.1025 28.3376 91.1744 28.4754C91.2461 28.6134 91.4086 28.6823 91.6622 28.6823H97.7289C98.258 28.6823 98.5997 28.4397 98.7543 27.9541L102.279 16.8815L106.449 28.1362C106.521 28.5004 106.716 28.6824 107.036 28.6824H113.4C113.841 28.6824 114.123 28.4895 114.246 28.1032L121.653 4.83262C121.737 4.56789 121.736 4.38044 121.65 4.26986L121.65 4.26973Z" fill="white"/>
<path d="M81.3305 4.10425H74.9992C74.4592 4.10425 74.0181 4.34706 73.6762 4.8324L64.9472 18.338L65.0929 12.479L69.8908 4.8324C69.9913 4.68921 70.0559 4.57329 70.0841 4.48491C70.1649 4.23127 70.0344 4.10425 69.6929 4.10425H61.3614C61.3126 4.10425 61.2676 4.13072 61.2442 4.17364C61.2207 4.21629 61.2224 4.26857 61.2485 4.30975L61.8127 5.19782L53.6628 18.3712L53.5255 4.83253C53.4925 4.34719 53.2062 4.10438 52.6664 4.10438H45.0633C45.0145 4.10438 44.9696 4.13085 44.9462 4.17377C44.9227 4.21642 44.9244 4.2687 44.9505 4.30988L46.4774 6.71336L46.4963 27.9543C46.4735 28.1639 46.5442 28.3572 46.7086 28.5336C46.7762 28.6328 46.9091 28.6825 47.1074 28.6825H53.6536C53.8188 28.6825 53.967 28.6328 54.0978 28.5336C54.3526 28.3903 54.5574 28.1971 54.712 27.9543L57.6139 23.6675L57.8281 27.7722C57.8225 27.8937 57.83 28.0344 57.8508 28.1942C57.8714 28.3541 57.9153 28.4673 57.9825 28.5335C58.05 28.6327 58.1831 28.6823 58.3814 28.6823H64.9275C65.0928 28.6823 65.2409 28.6327 65.3717 28.5335C65.6265 28.3902 65.8314 28.197 65.9858 27.9542L81.5284 4.83253C81.6289 4.68934 81.6935 4.57342 81.7217 4.48504C81.8025 4.2314 81.672 4.10438 81.3305 4.10438V4.10425Z" fill="white"/>
<path d="M147 10H187L194 15.5V28H154L147 21V10Z" fill="#568EFF"/>
<path d="M158.456 24L154.52 13.696H156.776L159.624 21.584L162.488 13.696H164.744L160.824 24H158.456Z" fill="#211E36"/>
<path d="M170.612 24.16C169.193 24.16 168.068 23.8187 167.236 23.136C166.415 22.4427 166.004 21.44 166.004 20.128V13.696H168.164V19.968C168.164 20.7573 168.377 21.3493 168.804 21.744C169.231 22.128 169.833 22.32 170.612 22.32C171.391 22.32 171.988 22.128 172.404 21.744C172.831 21.3493 173.044 20.7573 173.044 19.968V13.696H175.204V20.128C175.204 21.44 174.793 22.4427 173.972 23.136C173.151 23.8187 172.031 24.16 170.612 24.16Z" fill="#211E36"/>
<path d="M177.093 24V13.696H184.485V15.376H179.253V18.016H183.893V19.68H179.253V22.336H184.485V24H177.093Z" fill="#211E36"/>
</svg>
