<svg viewBox="0 0 24 26" fill="none" xmlns="http://www.w3.org/2000/svg">
<path d="M11.9475 0L6.37891 8.31814L8.60633 11.7133L11.9475 6.79034L15.2886 11.7133L17.5161 8.31814L11.9475 0Z" fill="#568EFF"/>
<path d="M23.0375 2.6339C22.9998 2.62342 22.9595 2.63796 22.9384 2.66919L15.2881 14.0351L12.0217 9.25537C11.9893 9.20782 11.9058 9.20782 11.8734 9.25537L8.60696 14.0351L0.956688 2.66919C0.93567 2.63786 0.895398 2.62337 0.857554 2.6339C0.819875 2.64422 0.793945 2.67686 0.793945 2.71398V9.43643C0.793945 9.45228 0.79869 9.46777 0.807737 9.48116L6.30435 17.6635C6.32057 17.6876 6.34865 17.7022 6.37888 17.7022H10.7978C10.8263 17.7022 10.8531 17.6891 10.8698 17.6671L11.9475 16.2348L13.0252 17.6671C13.0418 17.6891 13.0686 17.7022 13.0972 17.7022H17.5161C17.5463 17.7022 17.5745 17.6876 17.5906 17.6635L23.0872 9.48116C23.0963 9.46777 23.101 9.45228 23.101 9.43643V2.71398C23.101 2.67686 23.0751 2.64427 23.0374 2.6339H23.0375Z" fill="white"/>
<path d="M2.21942 14.3174L3.3291 15.9681L4.43879 17.6188H2.21942H0L1.10968 15.9681L2.21942 14.3174Z" fill="#568EFF"/>
<path d="M21.6764 14.3174L20.5667 15.9681L19.457 17.6188H21.6764H23.8958L22.7861 15.9681L21.6764 14.3174Z" fill="#568EFF"/>
<path d="M4.68359 20.4683H17.6364L19.9031 22.1514V25.9767H6.95033L4.68359 23.8345V20.4683Z" fill="#568EFF"/>
<path d="M8.39369 24.7525L7.11914 21.5993H7.84968L8.77191 24.0132L9.69933 21.5993H10.4299L9.1605 24.7525H8.39369Z" fill="#211E36"/>
<path d="M12.33 24.8015C11.8706 24.8015 11.5062 24.697 11.2367 24.4881C10.9708 24.2759 10.8378 23.9691 10.8378 23.5676V21.5993H11.5373V23.5186C11.5373 23.7602 11.6063 23.9414 11.7445 24.0621C11.8827 24.1796 12.0778 24.2384 12.33 24.2384C12.5821 24.2384 12.7755 24.1796 12.9102 24.0621C13.0484 23.9414 13.1175 23.7602 13.1175 23.5186V21.5993H13.8169V23.5676C13.8169 23.9691 13.684 24.2759 13.418 24.4881C13.152 24.697 12.7894 24.8015 12.33 24.8015Z" fill="#211E36"/>
<path d="M14.4288 24.7525V21.5993H16.8224V22.1134H15.1282V22.9213H16.6307V23.4305H15.1282V24.2433H16.8224V24.7525H14.4288Z" fill="#211E36"/>
</svg>
