<svg width="91" height="278" viewBox="0 0 91 278" fill="none" xmlns="http://www.w3.org/2000/svg">
<path d="M1.5 2.5L33.5 20.9753C34.1188 21.3325 34.5 21.9928 34.5 22.7073V159.5M4.5 274.5L33.9142 245.086C34.2893 244.711 34.5 244.202 34.5 243.672V174" stroke="white" stroke-opacity="0.22" stroke-width="2"/>
<circle cx="3" cy="3" r="3" fill="#D9D9D9"/>
<circle cx="4" cy="275" r="3" fill="#D9D9D9"/>
<path d="M89 2.5L57 20.9753C56.3812 21.3325 56 21.9928 56 22.7073V65M86 274.5L56.5858 245.086C56.2107 244.711 56 244.202 56 243.672V88" stroke="white" stroke-opacity="0.22" stroke-width="2"/>
<circle cx="3" cy="3" r="3" transform="matrix(-1 0 0 1 90.5 0)" fill="#D9D9D9"/>
<circle cx="3" cy="3" r="3" transform="matrix(-1 0 0 1 89.5 272)" fill="#D9D9D9"/>
</svg>
