<svg width="81" height="196" viewBox="0 0 81 196" fill="none" xmlns="http://www.w3.org/2000/svg">
<path d="M0 82.7363C0 82.0381 0.697373 81.5548 1.35112 81.8L11.3511 85.55C11.7414 85.6964 12 86.0695 12 86.4863V107.198C12 107.565 11.799 107.902 11.4763 108.077L1.47628 113.494C0.809983 113.855 0 113.372 0 112.614V82.7363Z" fill="#D9D9D9" fill-opacity="0.4"/>
<path d="M2.43115 119.856V162.194C2.43115 163.795 3.06708 165.331 4.19903 166.463L29.5495 191.813C30.6815 192.945 32.2167 193.581 33.8175 193.581H78.7425" stroke="white" stroke-opacity="0.4" stroke-width="3.4491" stroke-linecap="round"/>
<path d="M2 75.4491V33.1109C2 31.5101 2.63593 29.9748 3.76788 28.8429L29.1183 3.49243C30.2503 2.36047 31.7856 1.72455 33.3864 1.72455H78.3114" stroke="white" stroke-opacity="0.4" stroke-width="3.4491" stroke-linecap="round"/>
</svg>
